<svg height="512" viewBox="0 0 58 42" width="512" xmlns="http://www.w3.org/2000/svg"><g id="002---Donor-Card" fill="none"><rect id="Rectangle-path" fill="#35495e" height="42" rx="5" width="58"/><path id="Rectangle-path" d="m0 26h58v10h-58z" fill="#ecf0f1"/><g fill="#3f5c6c"><path id="Shape" d="m5 33c-.55228475 0-1-.4477153-1-1v-2c0-.5522847.44771525-1 1-1s1 .4477153 1 1v2c0 .5522847-.44771525 1-1 1z"/><path id="Shape" d="m9 33c-.55228475 0-1-.4477153-1-1v-2c0-.5522847.44771525-1 1-1s1 .4477153 1 1v2c0 .5522847-.44771525 1-1 1z"/><path id="Shape" d="m13 33c-.5522847 0-1-.4477153-1-1v-2c0-.5522847.4477153-1 1-1s1 .4477153 1 1v2c0 .5522847-.4477153 1-1 1z"/><path id="Shape" d="m17 33c-.5522847 0-1-.4477153-1-1v-2c0-.5522847.4477153-1 1-1s1 .4477153 1 1v2c0 .5522847-.4477153 1-1 1z"/><path id="Shape" d="m21 33c-.5522847 0-1-.4477153-1-1v-2c0-.5522847.4477153-1 1-1s1 .4477153 1 1v2c0 .5522847-.4477153 1-1 1z"/><circle id="Oval" cx="45" cy="30" r="1"/><circle id="Oval" cx="49" cy="30" r="1"/><circle id="Oval" cx="53" cy="30" r="1"/></g><path id="Shape" d="m53 17c0 2.7614237-2.2385763 5-5 5s-5-2.2385763-5-5c0-4 5-8 5-8s5 4 5 8z" fill="#e64c3c"/><path id="Shape" d="m41 8.923c0 1.6568542-1.3431458 3-3 3s-3-1.3431458-3-3c0-2.461 3-4.923 3-4.923s3 2.462 3 4.923z" fill="#e64c3c"/><rect id="Rectangle-path" fill="#ecf0f1" height="16" rx="2" width="16" x="5" y="5"/><circle id="Oval" cx="13" cy="12" fill="#fdd7ad" r="3"/><path id="Shape" d="m17 21h-8v-2c0-2.209139 1.790861-4 4-4s4 1.790861 4 4z" fill="#e64c3c"/></g></svg>